HIERARCHY
ROOT hip
{
  OFFSET 0 0 0
  CHANNELS 6 Xposition Yposition Zposition Zrotation Yrotation Xrotation
  JOINT abdomen
  {
    OFFSET 0 20.6881 -0.73152
    CHANNELS 3 Zrotation Xrotation Yrotation
    JOINT chest
    {
      OFFSET 0 11.7043 -0.48768
      CHANNELS 3 Zrotation Xrotation Yrotation
      JOINT neck
      {
        OFFSET 0 22.1894 -2.19456
        CHANNELS 3 Zrotation Xrotation Yrotation
        JOINT head
        {
          OFFSET -0.24384 7.07133 1.2192
          CHANNELS 3 Zrotation Xrotation Yrotation
          JOINT leftEye
          {
            OFFSET 4.14528 8.04674 8.04672
            CHANNELS 3 Zrotation Xrotation Yrotation
            End Site
            {
              OFFSET 1 0 0
            }
          }
          JOINT rightEye
          {
            OFFSET -3.6576 8.04674 8.04672
            CHANNELS 3 Zrotation Xrotation Yrotation
            End Site
            {
              OFFSET 1 0 0
            }
          }
        }
      }
      JOINT rCollar
      {
        OFFSET -2.68224 19.2634 -4.8768
        CHANNELS 3 Zrotation Xrotation Yrotation
        JOINT rShldr
        {
          OFFSET -8.77824 -1.95073 1.46304
          CHANNELS 3 Zrotation Xrotation Yrotation
          JOINT rForeArm
          {
            OFFSET -28.1742 -1.7115 0.48768
            CHANNELS 3 Zrotation Xrotation Yrotation
            JOINT rHand
            {
              OFFSET -22.5879 0.773209 7.07136
              CHANNELS 3 Zrotation Xrotation Yrotation
              JOINT rThumb1
              {
                OFFSET -1.2192 -0.487915 3.41376
                CHANNELS 3 Zrotation Xrotation Yrotation
                JOINT rThumb2
                {
                  OFFSET -3.37035 -0.52449 3.41376
                  CHANNELS 3 Zrotation Xrotation Yrotation
                  End Site
                  {
                    OFFSET -1.78271 -1.18214 1.43049
                  }
                }
              }
              JOINT rIndex1
              {
                OFFSET -7.75947 0.938293 5.60832
                CHANNELS 3 Zrotation Xrotation Yrotation
                JOINT rIndex2
                {
                  OFFSET -2.54057 -0.884171 1.56538
                  CHANNELS 3 Zrotation Xrotation Yrotation
                  End Site
                  {
                    OFFSET -1.62519 -0.234802 1.16502
                  }
                }
              }
              JOINT rMid1
              {
                OFFSET -8.24714 1.18213 3.41376
                CHANNELS 3 Zrotation Xrotation Yrotation
                JOINT rMid2
                {
                  OFFSET -3.10165 -0.590103 1.0647
                  CHANNELS 3 Zrotation Xrotation Yrotation
                  End Site
                  {
                    OFFSET -2.48547 -0.328903 0.83742
                  }
                }
              }
              JOINT rRing1
              {
                OFFSET -8.82822 0.546677 1.51678
                CHANNELS 3 Zrotation Xrotation Yrotation
                JOINT rRing2
                {
                  OFFSET -2.60934 -0.819778 -0.0198488
                  CHANNELS 3 Zrotation Xrotation Yrotation
                  End Site
                  {
                    OFFSET -2.33842 -0.294052 0.168128
                  }
                }
              }
              JOINT rPinky1
              {
                OFFSET -8.27202 -0.0477905 -0.4584
                CHANNELS 3 Zrotation Xrotation Yrotation
                JOINT rPinky2
                {
                  OFFSET -1.82734 -0.647385 -0.700984
                  CHANNELS 3 Zrotation Xrotation Yrotation
                  End Site
                  {
                    OFFSET -1.69225 -0.51767 -0.607171
                  }
                }
              }
            }
          }
        }
      }
      JOINT lCollar
      {
        OFFSET 2.68224 19.2634 -4.8768
        CHANNELS 3 Zrotation Xrotation Yrotation
        JOINT lShldr
        {
          OFFSET 8.77824 -1.95073 1.46304
          CHANNELS 3 Zrotation Xrotation Yrotation
          JOINT lForeArm
          {
            OFFSET 28.1742 -1.7115 0.48768
            CHANNELS 3 Zrotation Xrotation Yrotation
            JOINT lHand
            {
              OFFSET 22.5879 0.773209 7.07136
              CHANNELS 3 Zrotation Xrotation Yrotation
              JOINT lThumb1
              {
                OFFSET 1.2192 -0.487915 3.41376
                CHANNELS 3 Zrotation Xrotation Yrotation
                JOINT lThumb2
                {
                  OFFSET 3.37035 -0.52449 3.41376
                  CHANNELS 3 Zrotation Xrotation Yrotation
                  End Site
                  {
                    OFFSET 1.78271 -1.18214 1.43049
                  }
                }
              }
              JOINT lIndex1
              {
                OFFSET 7.75947 0.938293 5.60832
                CHANNELS 3 Zrotation Xrotation Yrotation
                JOINT lIndex2
                {
                  OFFSET 2.54057 -0.884171 1.56538
                  CHANNELS 3 Zrotation Xrotation Yrotation
                  End Site
                  {
                    OFFSET 1.62519 -0.234802 1.16502
                  }
                }
              }
              JOINT lMid1
              {
                OFFSET 8.24714 1.18213 3.41376
                CHANNELS 3 Zrotation Xrotation Yrotation
                JOINT lMid2
                {
                  OFFSET 3.10165 -0.590103 1.0647
                  CHANNELS 3 Zrotation Xrotation Yrotation
                  End Site
                  {
                    OFFSET 2.48547 -0.328903 0.83742
                  }
                }
              }
              JOINT lRing1
              {
                OFFSET 8.82822 0.546677 1.51678
                CHANNELS 3 Zrotation Xrotation Yrotation
                JOINT lRing2
                {
                  OFFSET 2.60934 -0.819778 -0.0198488
                  CHANNELS 3 Zrotation Xrotation Yrotation
                  End Site
                  {
                    OFFSET 2.33842 -0.294052 0.168128
                  }
                }
              }
              JOINT lPinky1
              {
                OFFSET 8.27202 -0.0477905 -0.4584
                CHANNELS 3 Zrotation Xrotation Yrotation
                JOINT lPinky2
                {
                  OFFSET 1.82734 -0.647385 -0.700984
                  CHANNELS 3 Zrotation Xrotation Yrotation
                  End Site
                  {
                    OFFSET 1.69225 -0.51767 -0.607171
                  }
                }
              }
            }
          }
        }
      }
    }
  }
  JOINT rButtock
  {
    OFFSET -8.77824 4.35084 1.2192
    CHANNELS 3 Zrotation Xrotation Yrotation
    JOINT rThigh
    {
      OFFSET 0 -1.70687 -2.19456
      CHANNELS 3 Zrotation Xrotation Yrotation
      JOINT rShin
      {
        OFFSET 0 -36.8199 0.73152
        CHANNELS 3 Zrotation Xrotation Yrotation
        JOINT rFoot
        {
          OFFSET 0.73152 -45.1104 -5.12064
          CHANNELS 3 Zrotation Xrotation Yrotation
          End Site
          {
            OFFSET -1.1221 -3.69964 12.103
          }
        }
      }
    }
  }
  JOINT lButtock
  {
    OFFSET 8.77824 4.35084 1.2192
    CHANNELS 3 Zrotation Xrotation Yrotation
    JOINT lThigh
    {
      OFFSET 0 -1.70687 -2.19456
      CHANNELS 3 Zrotation Xrotation Yrotation
      JOINT lShin
      {
        OFFSET 0 -36.8199 0.73152
        CHANNELS 3 Zrotation Xrotation Yrotation
        JOINT lFoot
        {
          OFFSET -0.73152 -45.1104 -5.12064
          CHANNELS 3 Zrotation Xrotation Yrotation
          End Site
          {
            OFFSET 1.1221 -3.69964 12.103
          }
        }
      }
    }
  }
}
MOTION
Frames:	4
Frame Time:	0.00833333
34.8978 83.8099 59.8801 9.5032 -71.0908 97.2443 7.67224 -42.1256 13.7436 -0.866312 -0.517236 2.63542 -6.42277 -7.74487 -8.3283 10.3003 -22.585 -12.6667 -0.0 0.0 0.0 -0.0 0.0 0.0 -7.15212e-14 -1.74136e-13 1.87702e-13 19.522 15.4382 50.4151 -19.4628 -53.7512 115.503 -2.172 -37.9961 -6.30305 1.72144e-09 8.60695e-09 4.12733e-09 2.84348e-09 1.48149e-08 7.20007e-09 1.72144e-09 8.60695e-09 4.12732e-09 7.73091 5.47488 0.417314 1.72144e-09 8.60696e-09 4.12733e-09 2.90554 0.965183 0.102902 1.72145e-09 8.60695e-09 4.12733e-09 10.2786 0.731801 0.0259123 1.72143e-09 8.60695e-09 4.12734e-09 2.22167 -0.733487 -0.20892 -7.16085e-14 -1.74136e-13 1.87504e-13 -15.8815 -13.5754 -93.7802 25.0862 -47.8581 -99.6381 10.1183 -63.4146 16.3099 -2.93365e-09 5.6743e-09 -3.11976e-09 -4.88384e-09 9.91149e-09 -5.50844e-09 -2.93364e-09 5.67429e-09 -3.11974e-09 -7.73091 5.47488 -0.417314 -2.93365e-09 5.67428e-09 -3.11976e-09 -2.90554 0.965183 -0.102902 -2.93366e-09 5.6743e-09 -3.11977e-09 -10.2786 0.731801 -0.0259123 -2.93365e-09 5.6743e-09 -3.11978e-09 -2.22167 -0.733487 0.20892 -2.03217e-16 0.0 -3.88251e-19 -62.8394 -56.6247 -34.6467 -8.05319 85.5039 11.605 2.80997 -4.10637 -11.789 2.03217e-16 0.0 3.88251e-19 53.6278 -41.8057 31.6474 2.08795 75.261 -4.89518 0.536763 -10.3131 12.6411
34.7173 83.548 59.9117 10.5274 -70.9928 96.315 7.77505 -42.1615 13.5167 -0.968573 -0.535435 2.5474 -6.55431 -8.0551 -8.30353 10.3944 -21.5087 -12.5473 -0.0 0.0 0.0 -0.0 0.0 0.0 -7.67265e-14 -1.75121e-13 1.7406e-13 19.129 13.4891 51.1885 -19.6414 -53.6198 115.078 -2.24854 -38.5342 -6.42656 1.35421e-09 6.83482e-09 3.25858e-09 2.23801e-09 1.17661e-08 5.68433e-09 1.35421e-09 6.83482e-09 3.25857e-09 7.73091 5.47488 0.417314 1.35421e-09 6.83482e-09 3.25858e-09 2.90554 0.965183 0.102902 1.35422e-09 6.83482e-09 3.25858e-09 10.2786 0.731801 0.0259123 1.35421e-09 6.83482e-09 3.25859e-09 2.22167 -0.733487 -0.20892 -7.67866e-14 -1.75113e-13 1.73915e-13 -16.5236 -14.4151 -94.4699 25.1835 -47.7048 -99.2875 9.7075 -62.766 15.8488 -2.53886e-09 4.50566e-09 -2.35893e-09 -4.24378e-09 7.87769e-09 -4.18243e-09 -2.53885e-09 4.50565e-09 -2.35891e-09 -7.73091 5.47488 -0.417314 -2.53886e-09 4.50564e-09 -2.35893e-09 -2.90554 0.965183 -0.102902 -2.53887e-09 4.50567e-09 -2.35893e-09 -10.2786 0.731801 -0.0259123 -2.53886e-09 4.50566e-09 -2.35894e-09 -2.22167 -0.733487 0.20892 -2.03217e-16 0.0 -3.88251e-19 -60.1852 -55.6535 -31.9894 -4.30478 82.2193 7.73087 2.88481 -3.29213 -12.4897 2.03217e-16 0.0 3.88251e-19 52.2051 -41.3922 30.6286 1.52441 71.604 -4.1747 0.789618 -10.1717 13.4832
34.5156 83.2744 59.9571 11.6108 -70.8814 95.3446 7.893 -42.2167 13.2771 -1.06799 -0.555456 2.45223 -6.67864 -8.29004 -8.26669 10.4673 -20.4822 -12.4155 -0.0 0.0 0.0 -0.0 0.0 0.0 -8.50611e-14 -1.63909e-13 1.48296e-13 18.7429 11.5388 51.9324 -19.8502 -53.4603 114.577 -2.33578 -39.1247 -6.56487 6.55271e-10 3.30094e-09 1.5135e-09 1.08772e-09 5.68788e-09 2.64106e-09 6.5527e-10 3.30093e-09 1.51349e-09 7.73091 5.47488 0.417314 6.55271e-10 3.30094e-09 1.5135e-09 2.90554 0.965183 0.102902 6.55275e-10 3.30093e-09 1.5135e-09 10.2786 0.731801 0.0259123 6.55265e-10 3.30093e-09 1.51352e-09 2.22167 -0.733487 -0.20892 -8.50949e-14 -1.63888e-13 1.48203e-13 -17.1721 -15.2315 -95.1354 25.2936 -47.5241 -98.8837 9.3888 -62.2422 15.4896 -1.61215e-09 2.22389e-09 -9.60875e-10 -2.72185e-09 3.90119e-09 -1.73524e-09 -1.61215e-09 2.22388e-09 -9.60862e-10 -7.73091 5.47488 -0.417314 -1.61215e-09 2.22388e-09 -9.60875e-10 -2.90554 0.965183 -0.102902 -1.61216e-09 2.22389e-09 -9.60879e-10 -10.2786 0.731801 -0.0259123 -1.61215e-09 2.22389e-09 -9.60888e-10 -2.22167 -0.733487 0.20892 -2.03217e-16 0.0 -3.88251e-19 -57.7326 -54.5998 -29.5663 -2.78617 78.8797 6.08253 3.03387 -2.26056 -13.1328 2.03217e-16 0.0 3.88251e-19 50.858 -41.0124 29.6546 1.1557 67.8963 -3.63845 0.974443 -9.99241 14.0969
34.2918 82.9919 60.0162 12.7143 -70.7697 94.3637 8.00305 -42.2668 13.0349 -1.17012 -0.57493 2.35747 -6.79007 -8.47609 -8.22082 10.539 -19.488 -12.2769 -0.0 0.0 0.0 -0.0 0.0 0.0 -7.66923e-14 -1.02552e-13 1.12803e-13 18.3985 9.58971 52.6312 -20.0963 -53.27 113.98 -2.43818 -39.8011 -6.72567 -8.64128e-11 -3.70621e-10 -2.78491e-10 -1.35123e-10 -6.29299e-10 -4.85289e-10 -8.6415e-11 -3.70625e-10 -2.78504e-10 7.73091 5.47488 0.417314 -8.64136e-11 -3.7062e-10 -2.78491e-10 2.90554 0.965183 0.102902 -8.64118e-11 -3.70627e-10 -2.78489e-10 10.2786 0.731801 0.0259123 -8.64201e-11 -3.70622e-10 -2.78477e-10 2.22167 -0.733487 -0.20892 -7.67145e-14 -1.0252e-13 1.12746e-13 -17.8149 -16.0336 -95.7854 25.4179 -47.3165 -98.4205 9.13281 -61.8071 15.2001 -7.14559e-10 -1.30855e-10 4.98255e-10 -1.25288e-09 -2.01637e-10 8.15559e-10 -7.14554e-10 -1.30849e-10 4.98263e-10 -7.73091 5.47488 -0.417314 -7.14555e-10 -1.30849e-10 4.98253e-10 -2.90554 0.965183 -0.102902 -7.14567e-10 -1.30843e-10 4.98252e-10 -10.2786 0.731801 -0.0259123 -7.14559e-10 -1.30845e-10 4.98241e-10 -2.22167 -0.733487 0.20892 -2.03217e-16 0.0 -3.88251e-19 -55.4561 -53.5064 -27.3076 -1.9724 75.5171 5.13775 3.23558 -1.10868 -13.7502 2.03217e-16 0.0 3.88251e-19 49.5245 -40.6486 28.6204 0.904752 64.1833 -3.22036 1.10833 -9.74155 14.5906
